<svg height="512pt" viewBox="0 -8 512 512" width="512pt" xmlns="http://www.w3.org/2000/svg"><path d="m464.199219 172.800781-208.199219-3-181.5-2.402343 181.5-104.699219 108.300781-62.699219 45 77.699219-12.902343 7.5c-7.199219 4.199219-9.597657 13.5-5.699219 20.699219h.300781c3.898438 7.203124 13.199219 9.601562 20.398438 5.402343l12.902343-7.5zm0 0" fill="#ff641a"/><path d="m464.199219 172.800781-208.199219-3v-107.101562l108.300781-62.699219 45 77.699219-12.902343 7.5c-7.199219 4.199219-9.597657 13.5-5.699219 20.699219h.300781c3.898438 7.203124 13.199219 9.601562 20.398438 5.402343l12.902343-7.5zm0 0" fill="#f03800"/><path d="m360.097656 172.800781-25.796875 15-78.300781 3.300781-46.5 2.097657-15-25.800781 61.5-35.699219 60.300781-34.800781zm0 0" fill="#e1ebf0"/><path d="m360.097656 172.800781-25.796875 15-78.300781 3.300781v-59.402343l60.300781-34.800781zm0 0" fill="#b4d2d7"/><path d="m496 255.300781h16v-90h-512v90h15c8.402344 0 15 6.597657 15 15 0 8.398438-6.597656 15-15 15h-15v90h15c8.402344 0 15 6.597657 15 15 0 8.398438-6.597656 15-15 15h-15v90h512v-90h-16c-8.402344 0-15-6.601562-15-15 0-8.402343 6.597656-15 15-15h16v-90h-16c-8.402344 0-15-6.601562-15-15 0-8.402343 6.597656-15 15-15zm0 0" fill="#ff9100"/><path d="m481 270.300781c0 8.398438 6.597656 15 15 15h16v90h-16c-8.402344 0-15 6.597657-15 15 0 8.398438 6.597656 15 15 15h16v90h-256v-330h256v90h-16c-8.402344 0-15 6.597657-15 15zm0 0" fill="#ff641a"/><path d="m91 225.300781v210h330v-210zm0 0" fill="#ebf2f0"/><path d="m256 225.300781h165v210h-165zm0 0" fill="#e1ebf0"/><path d="m181 285.300781h30v30h-30zm0 0" fill="#b4d2d7"/><path d="m241 285.300781h30v30h-30zm0 0" fill="#b4d2d7"/><path d="m301 285.300781h30v30h-30zm0 0" fill="#87a0af"/><path d="m151 345.300781h210v30h-210zm0 0" fill="#b4d2d7"/><g fill="#87a0af"><path d="m256 345.300781h105v30h-105zm0 0"/><path d="m256 285.300781h15v30h-15zm0 0"/></g></svg>