<svg id="Color" enable-background="new 0 0 24 24" height="512" viewBox="0 0 24 24" width="512" xmlns="http://www.w3.org/2000/svg"><g fill="#90a4ae"><path d="m23.25 8.5h-6.5c-.414 0-.75.336-.75.75s.336.75.75.75h6.5c.414 0 .75-.336.75-.75s-.336-.75-.75-.75z"/><path d="m23.25 11.5h-6.5c-.414 0-.75.336-.75.75s.336.75.75.75h6.5c.414 0 .75-.336.75-.75s-.336-.75-.75-.75z"/><path d="m23.25 14.5h-6.5c-.414 0-.75.336-.75.75s.336.75.75.75h6.5c.414 0 .75-.336.75-.75s-.336-.75-.75-.75z"/><path d="m23.25 17.5h-6.5c-.414 0-.75.336-.75.75s.336.75.75.75h6.5c.414 0 .75-.336.75-.75s-.336-.75-.75-.75z"/><path d="m23.25 20.5h-6.5c-.414 0-.75.336-.75.75s.336.75.75.75h6.5c.414 0 .75-.336.75-.75s-.336-.75-.75-.75z"/></g><path d="m12.25 8.5h-10.5c-.96 0-1.75.79-1.75 1.75v10c0 .96.79 1.75 1.75 1.75h10.5c.96 0 1.75-.79 1.75-1.75v-10c0-.96-.79-1.75-1.75-1.75z" fill="#eceff1"/><circle cx="7" cy="13.5" fill="#03a9f4" r="1.5"/><path d="m10 18.25c0 .41-.34.75-.75.75h-4.5c-.41 0-.75-.34-.75-.75v-.37c0-1.04.94-1.88 2.1-1.88h1.8c1.16 0 2.1.84 2.1 1.88z" fill="#03a9f4"/><path d="m22.25 0h-20.5c-.965 0-1.75.785-1.75 1.75v2.5c0 .965.785 1.75 1.75 1.75h20.5c.965 0 1.75-.785 1.75-1.75v-2.5c0-.965-.785-1.75-1.75-1.75z" fill="#03a9f4"/></svg>